<svg xmlns="http://www.w3.org/2000/svg" width="23" height="22" viewBox="0 0 23 22"><defs><style>.a{fill:#fff;}</style></defs><g transform="translate(-1014.228 -554.813)"><path class="a" d="M1026.674,565.8l10.167,9.725-.978.935-10.167-9.725-10.167,9.725-.945-.935,10.167-9.725-10.167-9.725.945-.9,10.167,9.725,10.167-9.725.978.9Z" transform="translate(0.015 -0.001)"/><path class="a" d="M1014.232,575.516,1024.4,565.8l-10.167-9.725,1.314-1.257,10.167,9.725,10.163-9.721,1.356,1.249-10.171,9.729,10.167,9.725-1.347,1.289-10.167-9.725-10.171,9.729-1.306-1.3Zm21.644.586.608-.582-9.981-9.549-.185-.177,10.163-9.722-.6-.557-10.17,9.729-10.167-9.727-.573.552,10.167,9.725-10.171,9.728.581.577,10.164-9.721,10.167,9.723Z" transform="translate(0)"/></g></svg>