<svg xmlns="http://www.w3.org/2000/svg" width="63" height="56" viewBox="0 0 63 56"><g transform="translate(-819.184 -2129.928)"><path d="M826.6,2151.33a2.172,2.172,0,1,1,2.171-2.171A2.172,2.172,0,0,1,826.6,2151.33Z" transform="translate(0 0.087)" fill="#fff"/><path d="M880.491,2145.3,867,2131.73a5.763,5.763,0,0,0-8.185,0l-4.874,4.9,0,0-3.206,3.225-3.4-3.424-4.776-4.805a5.764,5.764,0,0,0-8.185,0l-13.49,13.573a5.85,5.85,0,0,0,0,8.235l4.775,4.805v0l3.5,3.518-1.577,1.586a4.7,4.7,0,0,0,0,6.622,4.611,4.611,0,0,0,3.29,1.369c.026,0,.051-.006.077-.007,0,.026-.008.05-.008.078a4.659,4.659,0,0,0,1.363,3.31,4.607,4.607,0,0,0,3.289,1.372c.026,0,.05-.007.076-.007,0,.025-.007.049-.007.075a4.664,4.664,0,0,0,1.362,3.309,4.607,4.607,0,0,0,3.291,1.373c.026,0,.051-.006.077-.006,0,.025-.008.049-.008.076a4.659,4.659,0,0,0,1.362,3.308,4.631,4.631,0,0,0,6.58,0l1.577-1.585,1.575,1.582a5.771,5.771,0,0,0,8.186,0l1.92-1.932h0v0l4.82-4.849,0,0,0-.005,4.821-4.849h0l1.92-1.932a5.858,5.858,0,0,0,0-8.234l-.741-.746,3.207-3.228,4.875-4.905A5.855,5.855,0,0,0,880.491,2145.3Zm-57.732,6.246a3.165,3.165,0,0,1,0-4.451l13.49-13.572a3.116,3.116,0,0,1,4.424,0l3.836,3.859-15.594,15.693-2.319,2.332Zm9.516,16.534a1.984,1.984,0,0,1-2.818,0,2.014,2.014,0,0,1,0-2.835l2.425-2.438a1.988,1.988,0,0,1,2.82,0,2.015,2.015,0,0,1,0,2.835Zm4.722,4.752A2,2,0,0,1,834.18,2170l2.425-2.438a1.982,1.982,0,0,1,2.819,0,2.012,2.012,0,0,1,0,2.834Zm4.723,4.749a1.983,1.983,0,0,1-2.819,0,2.013,2.013,0,0,1,0-2.835l2.424-2.438a2,2,0,0,1,2.82,2.835Zm7.149,2.311-2.429,2.439a1.983,1.983,0,0,1-2.818,0,2.012,2.012,0,0,1,0-2.833l2.428-2.439a1.985,1.985,0,0,1,2.818,0,2.013,2.013,0,0,1,0,2.833Zm22.4-11.135-.981.986-7.25-7.3a1.323,1.323,0,0,0-1.881,0,1.343,1.343,0,0,0,0,1.893l7.251,7.3-2.944,2.963-7.251-7.3a1.322,1.322,0,0,0-1.88,0,1.343,1.343,0,0,0,0,1.893l7.25,7.295-2.943,2.962-7.253-7.3a1.322,1.322,0,0,0-1.88,0,1.344,1.344,0,0,0,0,1.892l7.252,7.295-.98.986a3.119,3.119,0,0,1-4.426,0l-1.753-1.763a4.657,4.657,0,0,0-4.143-6.771c-.025,0-.05.008-.075.008,0-.027.008-.051.008-.08a4.663,4.663,0,0,0-1.365-3.309,4.611,4.611,0,0,0-3.289-1.371c-.026,0-.05.007-.077.007,0-.025.008-.051.008-.076a4.669,4.669,0,0,0-1.362-3.311,4.618,4.618,0,0,0-3.291-1.369c-.025,0-.05.006-.076.007,0-.027.008-.052.008-.078a4.662,4.662,0,0,0-1.364-3.309,4.568,4.568,0,0,0-5.365-.859l-2.74-2.755,17.915-18.025,2.487,2.5-7.922,7.969a4.842,4.842,0,0,0,0,6.815,4.744,4.744,0,0,0,3.388,1.413h0a4.739,4.739,0,0,0,3.386-1.413l7.921-7.969,15.616,15.711A3.169,3.169,0,0,1,871.27,2168.76Zm-.741-8.98-13.936-14.021a1.322,1.322,0,0,0-1.85-.021h0c-.009.009-.022.012-.03.021l-8.86,8.916a2.114,2.114,0,0,1-1.506.628h0a2.147,2.147,0,0,1-1.507-3.659l9-9.05a1.217,1.217,0,0,0,.1-.158l2.946-2.963L872.8,2157.5Zm8.081-8.134-3.934,3.957-17.912-18.023,3.932-3.957a3.117,3.117,0,0,1,4.425,0l13.49,13.572A3.163,3.163,0,0,1,878.61,2151.646Z" fill="#fff"/><path d="M826.6,2146.986a2.172,2.172,0,1,0,2.171,2.173A2.173,2.173,0,0,0,826.6,2146.986Z" transform="translate(0 0.087)" fill="#fff"/></g></svg>